<?xml version="1.0" encoding="UTF-8" standalone="no"?>
<svg viewBox="0 0 24 24">
  <path
		d="m 21.619514,14.210208 -1.131708,-0.644644 c -1.226015,-0.736736 -1.226015,-2.486486 0,-3.223222 L 21.619514,9.6976994 C 22.562605,9.1451478 22.845532,8.0400425 22.279675,7.2112142 L 21.336588,5.6456488 C 20.770735,4.7247282 19.639024,4.448452 18.790245,5.0010044 L 17.658541,5.6456488 C 16.432521,6.3823854 14.829267,5.461465 14.829267,4.0800838 V 2.7907947 c 0,-1.0130127 -0.848779,-1.84184171 -1.886178,-1.84184171 H 11.05691 c -1.037398,0 -1.8861788,0.82882901 -1.8861788,1.84184171 v 1.197197 c 0,1.381381 -1.6032521,2.3023018 -2.8292683,1.5655653 L 5.2097551,5.0010044 C 4.2666656,4.448452 3.134958,4.8168203 2.6634132,5.6456488 L 1.7203234,7.2112142 C 1.2487787,8.1321351 1.5317056,9.2372399 2.3804862,9.7897928 l 1.1317074,0.6446432 c 1.2260167,0.644642 1.2260167,2.486485 0,3.131128 l -1.1317074,0.644644 c -0.9430895,0.552556 -1.2260165,1.657661 -0.6601628,2.486488 l 0.9430898,1.565566 c 0.5658539,0.920919 1.6975613,1.197196 2.5463419,0.644641 l 1.1317078,-0.55255 c 1.2260162,-0.736739 2.8292683,0.184187 2.8292683,1.565566 v 1.289289 c 0,1.013014 0.8487808,1.841839 1.8861788,1.841839 h 1.886179 c 1.037399,0 1.886178,-0.828825 1.886178,-1.841839 v -1.197196 c 0,-1.381382 1.603254,-2.302303 2.829274,-1.565565 l 1.131704,0.644643 c 0.94309,0.552553 2.074798,0.184184 2.546343,-0.644643 l 0.943087,-1.565567 c 0.47155,-1.013011 0.188622,-2.118116 -0.660161,-2.670672 z M 12,15.683683 c -2.0747971,0 -3.7723584,-1.657658 -3.7723584,-3.683682 0,-2.0260246 1.6975613,-3.6836818 3.7723584,-3.6836818 2.074798,0 3.772359,1.6576572 3.772359,3.6836818 0,2.026024 -1.697561,3.683682 -3.772359,3.683682 z"
		style="fill:none;stroke:currentColor;stroke-width:1.8"
	/>
</svg>
